<svg width="32" height="60" viewBox="0 0 32 60" fill="none" xmlns="http://www.w3.org/2000/svg">
<g id="img/ranking" clip-path="url(#clip0_695_54620)">
<path id="Union" d="M10.7188 31.2109C10.8923 35.029 13.5574 37.7305 17.4561 37.7305V38.7305L17.042 38.7217C12.808 38.5331 9.91038 35.4485 9.71973 31.2568L1 32.9609C1.51628 39.9953 7.36877 46.3309 16.9941 46.5273L17.4561 46.5322C27.588 46.5321 33.5903 39.9886 33.7754 32.7803L33.7803 32.4365C33.7802 24.635 27.8799 19.7184 21.4551 19.4561L32.4688 10.2773V3H2.37695V10.8018H20.9961L9.85059 20.373L13.8496 26.667C14.7674 26.3392 15.8822 26.0117 17.7178 26.0117L18.0957 26.0186C21.9602 26.157 24.667 28.4315 24.667 32.3057L24.6592 32.6357C24.4971 36.0233 21.838 38.7303 17.4561 38.7305V37.7305C19.5013 37.7304 21.0474 37.0819 22.0732 36.1172C23.0987 35.1528 23.667 33.8151 23.667 32.3057C23.667 30.5638 23.0489 29.2762 22.0596 28.4121C21.0536 27.5335 19.569 27.0117 17.7178 27.0117C16.0264 27.0117 15.0281 27.3088 14.1865 27.6094L13.4346 27.8779L13.0059 27.2041L9.00684 20.9102L8.54199 20.1787L9.19922 19.6152L18.2969 11.8018H1.37695V2H33.4688V10.7451L33.1094 11.0459L23.8564 18.7549C29.7884 20.0075 34.7802 25.0136 34.7803 32.4365C34.7803 40.3961 28.2342 47.5321 17.4561 47.5322C7.07295 47.5322 0.568649 40.7421 0.00292969 33.0342L-0.0625 32.1494L0.808594 31.9795L9.52734 30.2754L10.666 30.0527L10.7188 31.2109Z" fill="#6A6A6D"/>
</g>
<defs>
<clipPath id="clip0_695_54620">
<rect width="32" height="60" fill="white"/>
</clipPath>
</defs>
</svg>
